<svg xmlns="http://www.w3.org/2000/svg" x="0px" y="0px"
width="64" height="64"
viewBox="0 0 172 172"
style=" fill:#000000;"><g fill="none" fill-rule="nonzero" stroke="none" stroke-width="1" stroke-linecap="butt" stroke-linejoin="miter" stroke-miterlimit="10" stroke-dasharray="" stroke-dashoffset="0" font-family="none" font-weight="none" font-size="none" text-anchor="none" style="mix-blend-mode: normal"><path d="M0,172v-172h172v172z" fill="none"></path><g fill="#e74c3c"><path d="M119.58325,9.24353c-8.23302,1.6655 -15.56832,6.29506 -20.61423,13.01036c-5.15099,6.75326 -7.64213,15.16323 -7.00023,23.63242c8.26307,-1.73966 15.61521,-6.41613 20.69362,-13.16258c5.10251,-6.71612 7.56491,-15.07026 6.92084,-23.48019zM54.37791,14.24716c1.23727,17.37608 15.06089,31.19942 32.437,32.43634c-1.23741,-17.37602 -15.06095,-31.19928 -32.437,-32.43634zM87.19875,48.08893c-1.79021,3.5653 -3.00117,7.97135 -3.50307,12.742l4.67688,0.49275c0.4431,-4.214 1.49075,-8.05991 3.02934,-11.12399zM66.77676,60.62425c-7.94223,0 -14.61313,2.08955 -19.92463,6.25618c-8.8328,6.92535 -13.69536,19.88267 -13.69536,36.48268c0,9.88261 2.11679,20.55963 5.96092,30.05591c4.11423,10.16648 9.84315,18.22425 16.56526,23.29254c7.75478,5.84531 16.42089,7.4677 25.75827,4.79498c0.05442,-0.01545 0.10959,-0.07485 0.16469,-0.08661c1.23858,-0.29453 2.50359,-0.46401 3.77602,-0.50587h1.23614c1.27309,0.04172 2.53877,0.21119 3.77799,0.50587c0.05509,0.01176 0.10961,0.01539 0.16403,0.03084c9.33705,2.67305 18.00381,1.07988 25.75892,-4.76677c6.72278,-5.06829 12.45104,-13.11291 16.56526,-23.28073c3.8438,-9.49763 5.96027,-20.16608 5.96027,-30.04869c0,-16.598 -4.86356,-29.54943 -13.69536,-36.47612c-8.20292,-6.43287 -19.64321,-7.91193 -34.00252,-4.39803c-1.67312,0.48211 -3.40547,0.7277 -5.14667,0.72962c-1.74241,0.01263 -3.47706,-0.23325 -5.14733,-0.72962c-4.60105,-1.1784 -9.32667,-1.80156 -14.07591,-1.85619zM68.6815,72.49951c1.29873,0 2.35156,1.05283 2.35156,2.35156c0,1.29873 -1.05283,2.35156 -2.35156,2.35156c-7.48023,0.00021 -12.34679,1.78842 -15.31731,5.62695c-2.84808,3.68221 -4.17429,9.47594 -4.17429,18.23248c0,1.29873 -1.05283,2.35156 -2.35156,2.35156c-1.29873,0 -2.35156,-1.05283 -2.35156,-2.35156c0,-9.85271 1.63889,-16.56234 5.15716,-21.11026c3.87907,-5.01487 10.10598,-7.4523 19.03755,-7.4523z"></path></g></g></svg>