<svg xmlns="http://www.w3.org/2000/svg" x="0px" y="0px"
width="64" height="64"
viewBox="0 0 172 172"
style=" fill:#000000;"><g fill="none" fill-rule="nonzero" stroke="none" stroke-width="1" stroke-linecap="butt" stroke-linejoin="miter" stroke-miterlimit="10" stroke-dasharray="" stroke-dashoffset="0" font-family="none" font-weight="none" font-size="none" text-anchor="none" style="mix-blend-mode: normal"><path d="M0,172v-172h172v172z" fill="none"></path><g fill="#e74c3c"><path d="M67.1875,21.5c-4.42086,0 -8.0625,3.64164 -8.0625,8.0625v26.875v10.75c0,4.42086 3.64164,8.0625 8.0625,8.0625h37.625c4.42086,0 8.0625,-3.64164 8.0625,-8.0625v-10.75v-26.875c0,-4.42086 -3.64164,-8.0625 -8.0625,-8.0625zM67.1875,26.875h37.625c1.51852,0 2.6875,1.16898 2.6875,2.6875v26.875c0,1.51852 -1.16898,2.6875 -2.6875,2.6875h-37.625c-1.51852,0 -2.6875,-1.16898 -2.6875,-2.6875v-26.875c0,-1.51852 1.16898,-2.6875 2.6875,-2.6875zM85.95801,32.21326c-0.82007,0.01286 -1.58939,0.39945 -2.08911,1.0498c-0.00352,0.00524 -0.00702,0.01049 -0.0105,0.01575l-5.13354,5.13355c-0.70208,0.67407 -0.9849,1.67503 -0.73938,2.61684c0.24552,0.94181 0.98102,1.67731 1.92283,1.92283c0.94181,0.24552 1.94277,-0.0373 2.61684,-0.73938l0.78735,-0.78735v9.63721c-0.01371,0.96921 0.49551,1.87072 1.33266,2.35932c0.83715,0.4886 1.87253,0.4886 2.70968,0c0.83715,-0.4886 1.34637,-1.39011 1.33266,-2.35932v-9.63721l0.78735,0.78735c0.67407,0.70208 1.67503,0.9849 2.61684,0.73938c0.94181,-0.24552 1.67731,-0.98102 1.92283,-1.92283c0.24552,-0.94181 -0.0373,-1.94277 -0.73938,-2.61684l-5.13879,-5.1388c-0.51662,-0.6792 -1.32508,-1.07272 -2.17835,-1.0603zM64.5,63.99609c0.84627,0.30519 1.74192,0.50391 2.6875,0.50391h37.625c0.94558,0 1.84123,-0.19871 2.6875,-0.50391v3.19141c0,1.51852 -1.16898,2.6875 -2.6875,2.6875h-37.625c-1.51852,0 -2.6875,-1.16898 -2.6875,-2.6875zM8.0625,80.625c-4.42086,0 -8.0625,3.64164 -8.0625,8.0625v37.625c0,4.42086 3.64164,8.0625 8.0625,8.0625h37.625c4.42086,0 8.0625,-3.64164 8.0625,-8.0625v-37.625c0,-4.42086 -3.64164,-8.0625 -8.0625,-8.0625zM67.1875,80.625c-4.42086,0 -8.0625,3.64164 -8.0625,8.0625v37.625c0,4.42086 3.64164,8.0625 8.0625,8.0625h37.625c4.42086,0 8.0625,-3.64164 8.0625,-8.0625v-37.625c0,-4.42086 -3.64164,-8.0625 -8.0625,-8.0625zM126.3125,80.625c-4.42086,0 -8.0625,3.64164 -8.0625,8.0625v37.625c0,4.42086 3.64164,8.0625 8.0625,8.0625h37.625c4.42086,0 8.0625,-3.64164 8.0625,-8.0625v-37.625c0,-4.42086 -3.64164,-8.0625 -8.0625,-8.0625zM8.0625,86h37.625c1.51852,0 2.6875,1.16898 2.6875,2.6875v26.875c0,1.51852 -1.16898,2.6875 -2.6875,2.6875h-37.625c-1.51852,0 -2.6875,-1.16898 -2.6875,-2.6875v-26.875c0,-1.51852 1.16898,-2.6875 2.6875,-2.6875zM67.1875,86h37.625c1.51852,0 2.6875,1.16898 2.6875,2.6875v26.875c0,1.51852 -1.16898,2.6875 -2.6875,2.6875h-37.625c-1.51852,0 -2.6875,-1.16898 -2.6875,-2.6875v-26.875c0,-1.51852 1.16898,-2.6875 2.6875,-2.6875zM126.3125,86h37.625c1.51852,0 2.6875,1.16898 2.6875,2.6875v26.875c0,1.51852 -1.16898,2.6875 -2.6875,2.6875h-37.625c-1.51852,0 -2.6875,-1.16898 -2.6875,-2.6875v-26.875c0,-1.51852 1.16898,-2.6875 2.6875,-2.6875zM85.95801,91.33826c-1.4822,0.02317 -2.66581,1.242 -2.64551,2.72424v9.63721l-0.78735,-0.78735c-0.67407,-0.70208 -1.67503,-0.9849 -2.61684,-0.73938c-0.94181,0.24552 -1.67731,0.98102 -1.92283,1.92283c-0.24552,0.94181 0.0373,1.94277 0.73938,2.61684l5.13879,5.1388c0.50697,0.66524 1.29474,1.05655 2.13114,1.05861c0.8364,0.00206 1.62608,-0.38537 2.13632,-1.04811c0.00352,-0.00524 0.00702,-0.01049 0.0105,-0.01575l5.13354,-5.13355c0.70208,-0.67407 0.9849,-1.67503 0.73938,-2.61684c-0.24552,-0.94181 -0.98102,-1.67731 -1.92283,-1.92283c-0.94181,-0.24552 -1.94277,0.0373 -2.61684,0.73938l-0.78735,0.78735v-9.63721c0.00995,-0.72643 -0.2746,-1.42595 -0.78881,-1.93917c-0.51421,-0.51322 -1.21427,-0.79642 -1.94068,-0.78507zM24.13501,94.03625c-0.69821,0.0208 -1.36089,0.31261 -1.84766,0.8136l-5.13879,5.13879c-0.66524,0.50697 -1.05655,1.29474 -1.05861,2.13114c-0.00206,0.8364 0.38537,1.62608 1.04811,2.13632c0.00524,0.00352 0.01049,0.00702 0.01575,0.0105l5.13355,5.13354c0.67407,0.70208 1.67503,0.98489 2.61684,0.73937c0.94181,-0.24552 1.6773,-0.98101 1.92282,-1.92282c0.24552,-0.94181 -0.03729,-1.94276 -0.73937,-2.61684l-0.78735,-0.78735h9.63721c0.96921,0.01371 1.87072,-0.49551 2.35932,-1.33266c0.4886,-0.83715 0.4886,-1.87253 0,-2.70968c-0.4886,-0.83715 -1.39011,-1.34637 -2.35932,-1.33266h-9.63721l0.78735,-0.78735c0.79486,-0.77263 1.03385,-1.95399 0.60182,-2.97483c-0.43203,-1.02084 -1.44645,-1.67174 -2.55446,-1.63906zM147.78625,94.03625c-1.09361,0.00029 -2.078,0.66316 -2.48951,1.67638c-0.41152,1.01323 -0.16809,2.17476 0.61561,2.93751l0.78735,0.78735h-9.63721c-0.96921,-0.01371 -1.87072,0.49551 -2.35932,1.33266c-0.4886,0.83715 -0.4886,1.87253 0,2.70968c0.4886,0.83715 1.39011,1.34637 2.35932,1.33266h9.63721l-0.78735,0.78735c-0.70208,0.67407 -0.9849,1.67503 -0.73938,2.61684c0.24552,0.94181 0.98102,1.67731 1.92283,1.92283c0.94181,0.24552 1.94277,-0.0373 2.61684,-0.73938l5.1388,-5.13879c0.66524,-0.50697 1.05655,-1.29474 1.05861,-2.13114c0.00206,-0.8364 -0.38537,-1.62608 -1.04811,-2.13632c-0.00524,-0.00352 -0.01049,-0.00702 -0.01575,-0.0105l-5.13355,-5.13354c-0.50598,-0.52012 -1.20076,-0.81356 -1.92639,-0.8136zM5.375,123.12109c0.84627,0.30519 1.74192,0.50391 2.6875,0.50391h37.625c0.94558,0 1.84123,-0.19871 2.6875,-0.50391v3.19141c0,1.51852 -1.16898,2.6875 -2.6875,2.6875h-37.625c-1.51852,0 -2.6875,-1.16898 -2.6875,-2.6875zM64.5,123.12109c0.84627,0.30519 1.74192,0.50391 2.6875,0.50391h37.625c0.94558,0 1.84123,-0.19871 2.6875,-0.50391v3.19141c0,1.51852 -1.16898,2.6875 -2.6875,2.6875h-37.625c-1.51852,0 -2.6875,-1.16898 -2.6875,-2.6875zM123.625,123.12109c0.84627,0.30519 1.74192,0.50391 2.6875,0.50391h37.625c0.94558,0 1.84123,-0.19871 2.6875,-0.50391v3.19141c0,1.51852 -1.16898,2.6875 -2.6875,2.6875h-37.625c-1.51852,0 -2.6875,-1.16898 -2.6875,-2.6875zM5.33301,139.71326c-1.4822,0.02317 -2.66581,1.242 -2.64551,2.72424v5.375c-0.01371,0.96921 0.49551,1.87072 1.33266,2.35932c0.83715,0.4886 1.87253,0.4886 2.70968,0c0.83715,-0.4886 1.34637,-1.39011 1.33266,-2.35932v-5.375c0.00995,-0.72643 -0.2746,-1.42595 -0.78881,-1.93917c-0.51421,-0.51322 -1.21427,-0.79642 -1.94068,-0.78507zM18.77051,139.71326c-1.4822,0.02317 -2.66581,1.242 -2.64551,2.72424v5.375c-0.01371,0.96921 0.49551,1.87072 1.33266,2.35932c0.83715,0.4886 1.87253,0.4886 2.70968,0c0.83715,-0.4886 1.34637,-1.39011 1.33266,-2.35932v-5.375c0.00995,-0.72643 -0.2746,-1.42595 -0.78881,-1.93917c-0.51421,-0.51322 -1.21427,-0.79642 -1.94068,-0.78507zM32.20801,139.71326c-1.4822,0.02317 -2.66581,1.242 -2.64551,2.72424v5.375c-0.01371,0.96921 0.49551,1.87072 1.33266,2.35932c0.83715,0.4886 1.87253,0.4886 2.70968,0c0.83715,-0.4886 1.34637,-1.39011 1.33266,-2.35932v-5.375c0.00995,-0.72643 -0.2746,-1.42595 -0.78881,-1.93917c-0.51421,-0.51322 -1.21427,-0.79642 -1.94068,-0.78507zM45.64551,139.71326c-1.4822,0.02317 -2.66581,1.242 -2.64551,2.72424v5.375c-0.01371,0.96921 0.49551,1.87072 1.33266,2.35932c0.83715,0.4886 1.87253,0.4886 2.70968,0c0.83715,-0.4886 1.34637,-1.39011 1.33266,-2.35932v-5.375c0.00995,-0.72643 -0.2746,-1.42595 -0.78881,-1.93917c-0.51421,-0.51322 -1.21427,-0.79642 -1.94068,-0.78507zM59.08301,139.71326c-1.4822,0.02317 -2.66581,1.242 -2.64551,2.72424v5.375c-0.01371,0.96921 0.49551,1.87072 1.33266,2.35932c0.83715,0.4886 1.87253,0.4886 2.70968,0c0.83715,-0.4886 1.34637,-1.39011 1.33266,-2.35932v-5.375c0.00995,-0.72643 -0.2746,-1.42595 -0.78881,-1.93917c-0.51421,-0.51322 -1.21427,-0.79642 -1.94068,-0.78507zM72.52051,139.71326c-1.4822,0.02317 -2.66581,1.242 -2.64551,2.72424v5.375c-0.01371,0.96921 0.49551,1.87072 1.33266,2.35932c0.83715,0.4886 1.87253,0.4886 2.70968,0c0.83715,-0.4886 1.34637,-1.39011 1.33266,-2.35932v-5.375c0.00995,-0.72643 -0.2746,-1.42595 -0.78881,-1.93917c-0.51421,-0.51322 -1.21427,-0.79642 -1.94068,-0.78507zM85.95801,139.71326c-1.4822,0.02317 -2.66581,1.242 -2.64551,2.72424v5.375c-0.01371,0.96921 0.49551,1.87072 1.33266,2.35932c0.83715,0.4886 1.87253,0.4886 2.70968,0c0.83715,-0.4886 1.34637,-1.39011 1.33266,-2.35932v-5.375c0.00995,-0.72643 -0.2746,-1.42595 -0.78881,-1.93917c-0.51421,-0.51322 -1.21427,-0.79642 -1.94068,-0.78507zM99.39551,139.71326c-1.4822,0.02317 -2.66581,1.242 -2.64551,2.72424v5.375c-0.01371,0.96921 0.49551,1.87072 1.33266,2.35932c0.83715,0.4886 1.87253,0.4886 2.70968,0c0.83715,-0.4886 1.34637,-1.39011 1.33266,-2.35932v-5.375c0.00995,-0.72643 -0.2746,-1.42595 -0.78881,-1.93917c-0.51421,-0.51322 -1.21427,-0.79642 -1.94068,-0.78507zM112.83301,139.71326c-1.4822,0.02317 -2.66581,1.242 -2.64551,2.72424v5.375c-0.01371,0.96921 0.49551,1.87072 1.33266,2.35932c0.83715,0.4886 1.87253,0.4886 2.70968,0c0.83715,-0.4886 1.34637,-1.39011 1.33266,-2.35932v-5.375c0.00995,-0.72643 -0.2746,-1.42595 -0.78881,-1.93917c-0.51421,-0.51322 -1.21427,-0.79642 -1.94068,-0.78507zM126.27051,139.71326c-1.4822,0.02317 -2.66581,1.242 -2.64551,2.72424v5.375c-0.01371,0.96921 0.49551,1.87072 1.33266,2.35932c0.83715,0.4886 1.87253,0.4886 2.70968,0c0.83715,-0.4886 1.34637,-1.39011 1.33266,-2.35932v-5.375c0.00995,-0.72643 -0.2746,-1.42595 -0.78881,-1.93917c-0.51421,-0.51322 -1.21427,-0.79642 -1.94068,-0.78507zM139.70801,139.71326c-1.4822,0.02317 -2.66581,1.242 -2.64551,2.72424v5.375c-0.01371,0.96921 0.49551,1.87072 1.33266,2.35932c0.83715,0.4886 1.87253,0.4886 2.70968,0c0.83715,-0.4886 1.34637,-1.39011 1.33266,-2.35932v-5.375c0.00995,-0.72643 -0.2746,-1.42595 -0.78881,-1.93917c-0.51421,-0.51322 -1.21427,-0.79642 -1.94068,-0.78507zM153.14551,139.71326c-1.4822,0.02317 -2.66581,1.242 -2.64551,2.72424v5.375c-0.01371,0.96921 0.49551,1.87072 1.33266,2.35932c0.83715,0.4886 1.87253,0.4886 2.70968,0c0.83715,-0.4886 1.34637,-1.39011 1.33266,-2.35932v-5.375c0.00995,-0.72643 -0.2746,-1.42595 -0.78881,-1.93917c-0.51421,-0.51322 -1.21427,-0.79642 -1.94068,-0.78507zM166.58301,139.71326c-1.4822,0.02317 -2.66581,1.242 -2.64551,2.72424v5.375c-0.01371,0.96921 0.49551,1.87072 1.33266,2.35932c0.83715,0.4886 1.87253,0.4886 2.70968,0c0.83715,-0.4886 1.34637,-1.39011 1.33266,-2.35932v-5.375c0.00995,-0.72643 -0.2746,-1.42595 -0.78881,-1.93917c-0.51421,-0.51322 -1.21427,-0.79642 -1.94068,-0.78507z"></path></g></g></svg>